# xmcd
#
# Track frame offsets: 
#        150
#        16676
#        40267
#        51785
#        72976
#        91670
#        108363
#        124837
#        146442
#        160812
#        174385
#        195847
#        209647
#        216909
#        236295
#        250115
#        268366
#        281802
#
# Disc length: 4003 seconds
#
# Revision: 0
# Processed by: cddbd v1.5.2PL0 Copyright (c) Steve Scherf et al.
# Submitted via: ExactAudioCopy v1.1
#
DISCID=fe0fa112
DTITLE=Евгений Маргулис - Лучшее  CD2
DYEAR=2010
DGENRE=Blues
TTITLE0=Шанхай-Блюз
TTITLE1=Внештатный командир Земли
TTITLE2=Я дам тебе (знать)
TTITLE3=Не плачь обо мне
TTITLE4=Мой друг (лучше всех играет блюз)
TTITLE5=Пусть она станет небом
TTITLE6=Домажо
TTITLE7=Старые песни
TTITLE8=Всегда одинок
TTITLE9=Проводница
TTITLE10=Ветер всё сильней
TTITLE11=Иногда я пою
TTITLE12=Я рядом с тобой
TTITLE13=У зелёных листьев
TTITLE14=Блюз о вреде пьянства
TTITLE15=Сколько было звёзд
TTITLE16=Последняя-2
TTITLE17=Спой со мной
EXTD=
EXTT0=
EXTT1=
EXTT2=
EXTT3=
EXTT4=
EXTT5=
EXTT6=
EXTT7=
EXTT8=
EXTT9=
EXTT10=
EXTT11=
EXTT12=
EXTT13=
EXTT14=
EXTT15=
EXTT16=
EXTT17=
PLAYORDER=
